<svg width="88" height="16" viewBox="0 0 88 16" fill="none" xmlns="http://www.w3.org/2000/svg">
<g id="company" clip-path="url(#clip0_3_158)">
<g id="Mask group">
<mask id="mask0_3_158" style="mask-type:luminance" maskUnits="userSpaceOnUse" x="0" y="0" width="88" height="16">
<g id="Group">
<path id="Vector" d="M88 0H0V16H88V0Z" fill="white"/>
</g>
</mask>
<g mask="url(#mask0_3_158)">
<g id="Group_2">
<path id="Vector_2" d="M30.6396 0L24.8134 15.9815H27.9172L29.0617 12.8443H33.1539L34.281 9.74391H30.1887L32.2522 4.09687L36.587 15.9815H39.6911L33.8649 0H30.6396ZM24.8134 0.0184544H14.3054V3.10035H18.1202V16H21.0159V3.10035H24.8134V0.0184544ZM5.35803 0.0184544C3.2599 0.0184544 1.36985 0.92272 0.0173399 2.39908L2.06345 4.57669C2.89577 3.67244 4.05752 3.10035 5.35803 3.10035C7.88965 3.10035 9.95314 5.29644 9.95314 7.99076C9.95314 10.6852 7.88965 12.8812 5.35803 12.8812C4.07488 12.8812 2.89577 12.3092 2.06345 11.4048L0 13.6009C1.35251 15.0772 3.2599 15.9815 5.3407 15.9815C9.48496 15.9815 12.8488 12.4014 12.8488 8.00924C12.8488 3.61708 9.48496 0.0184544 5.35803 0.0184544ZM9.53691 6.45906H3.46799L3.50267 9.55938H8.40985L9.53691 6.45906ZM77.7002 0H74.7698V15.9815H77.7002V9.55938H83.8905L85.0173 6.45906H77.7002V0ZM85.0698 0V15.9815H88V0H85.0698ZM64.3658 0C60.2215 0 56.8748 3.58016 56.8748 7.97233C56.8748 12.3644 60.2388 15.9446 64.3658 15.9446C68.4925 15.9446 71.8565 12.3644 71.8565 7.97233C71.874 3.56171 68.51 0 64.3658 0ZM64.3658 12.8628C61.8341 12.8628 59.7705 10.6667 59.7705 7.97233C59.7705 5.27796 61.8341 3.08189 64.3658 3.08189C66.8972 3.08189 68.9607 5.27796 68.9607 7.97233C68.9607 10.6667 66.8972 12.8628 64.3658 12.8628ZM46.9566 0L41.1304 15.9815H44.2169L48.5516 4.09687L52.8866 15.9815H55.9907L50.1645 0H46.9566Z" fill="white"/>
</g>
</g>
</g>
</g>
<defs>
<clipPath id="clip0_3_158">
<rect width="88" height="16" fill="white"/>
</clipPath>
</defs>
</svg>
